<svg xmlns="http://www.w3.org/2000/svg" viewBox="0 0 520 475.68"><defs><style>.cls-1{fill:#0e5257;}</style></defs><g id="Guides"><path class="cls-1" d="M758.24,710.06l-100.47-216a40.68,40.68,0,0,0-2.23-4.09,36.55,36.55,0,0,0-50.43-11.41l-1.2.76L317.74,659.87l185-295.47,58.72,79.69a18.83,18.83,0,0,0,32.41-18.71L531.43,282.55a34,34,0,0,0-61.2-2.31L469,282.55,242.18,710.06a18.92,18.92,0,0,0,25.15,25.79l.24-.12L610.63,564.58l115.2,164.2a18.79,18.79,0,0,0,32.41-18.72Z" transform="translate(-240 -262.16)"/></g></svg>